<svg width="675" height="125" viewBox="0 0 675 125" fill="none" xmlns="http://www.w3.org/2000/svg">
<g clip-path="url(#clip0_38_226)">
<path d="M489.9 0.0581564C479.8 0.0581564 471.581 8.27084 471.581 18.363V106.627C471.581 116.717 479.8 124.932 489.9 124.932C500 124.932 508.22 116.72 508.22 106.627V18.372C508.22 8.27084 500 0.0671492 489.9 0.0671492V0.0559082V0.0581564Z" fill="#050505"/>
<path d="M453.201 2.66382C450.373 0.961933 447.153 0.0559082 443.866 0.0559082C437.458 0.0559082 431.648 3.32929 428.341 8.80591L390.334 71.7331L352.327 8.80591C349.019 3.32929 343.21 0.0559082 336.802 0.0559082C333.526 0.0559082 330.295 0.961933 327.467 2.66382C323.329 5.16157 320.402 9.1229 319.245 13.8127C318.086 18.5047 318.818 23.3698 321.32 27.5042L374.786 116.034C377.768 120.975 382.778 124.13 388.586 124.696H388.696C388.959 124.73 389.22 124.75 389.58 124.761L390.354 124.784C390.485 124.784 391.184 124.761 391.184 124.761C391.445 124.75 391.709 124.73 391.882 124.719L392.1 124.696C397.876 124.141 402.898 120.987 405.89 116.034L459.357 27.5042C464.521 18.961 461.76 7.82344 453.21 2.66382H453.199H453.201Z" fill="#050505"/>
<path d="M241.952 0.0584717C187.394 0.0584717 164.125 18.6713 164.125 62.3112C164.125 83.9928 169.914 99.3728 181.814 109.33C194.356 119.829 214.032 124.93 241.952 124.93C269.872 124.93 289.549 119.829 302.101 109.33C314.002 99.3728 319.791 83.9951 319.791 62.3112C319.788 18.6826 296.51 0.0584717 241.952 0.0584717ZM241.952 95.9622C214.241 95.9622 200.761 84.9438 200.761 62.2797C200.761 39.6156 213.843 28.9951 241.952 28.9951C270.061 28.9951 283.141 39.8809 283.141 62.2797C283.141 84.6785 269.672 95.9622 241.952 95.9622Z" fill="#050505"/>
<path d="M137.347 0.0581564C127.249 0.0581564 119.027 8.27084 119.027 18.363V71.2002L29.3332 3.76769C26.262 1.44755 22.4505 0.0581564 18.3195 0.0581564C8.21925 0.0581564 0 8.27084 0 18.372V106.625C0 116.715 8.21925 124.93 18.3195 124.93C28.4197 124.93 36.639 116.717 36.639 106.625V53.8666L129.274 123.39L129.688 123.685C131.355 124.788 134.786 124.932 137.338 124.932C147.438 124.932 155.657 116.72 155.657 106.627V18.372C155.657 8.27084 147.438 0.0671492 137.338 0.0671492L137.349 0.0559082L137.347 0.0581564Z" fill="#050505"/>
<path d="M661.066 56.3514H627.402C619.7 56.3514 613.459 62.5879 613.459 70.2835C613.459 77.9791 619.7 84.2156 627.402 84.2156H631.888C625.314 92.0978 613.891 95.9737 597.461 95.9737C569.75 95.9737 556.27 84.9553 556.27 62.2912C556.27 39.627 569.352 29.0065 597.461 29.0065C615.25 29.0065 627.159 33.5007 633.425 42.6306C634.773 44.5956 636.949 45.7984 639.336 45.7984H661.885C668.35 45.7984 672.856 39.2628 670.426 33.2781C661.078 10.2835 637.842 0.0699463 597.459 0.0699463C542.901 0.0699463 519.631 18.6828 519.631 62.3226C519.631 84.0043 525.421 99.3842 537.321 109.342C549.862 119.841 569.539 124.94 597.459 124.94C616.638 124.94 632.669 120.729 643.687 111.241C643.687 118.289 650.338 124.928 658.418 124.928C669.621 124.928 674.998 116.725 674.998 106.623V70.306C674.998 62.6104 668.757 56.3739 661.055 56.3739L661.066 56.3514Z" fill="#050505"/>
</g>
<defs>
<clipPath id="clip0_38_226">
<rect width="675" height="125" fill="white"/>
</clipPath>
</defs>
</svg>
